Coordinates
version=1
nRows=6
nColumns=36
inDegrees=yes

Units are S.I. units (second, meters, Newtons, ...)
If the header above contains a line with 'inDegrees', this indicates whether rotational values are in degrees (yes) or radians (no).

endheader
time	pelvis_tilt	pelvis_list	pelvis_rotation	pelvis_tx	pelvis_ty	pelvis_tz	hip_flexion_r	hip_adduction_r	hip_rotation_r	knee_angle_r	knee_angle_r_beta	ankle_angle_r	subtalar_angle_r	mtp_angle_r	hip_flexion_l	hip_adduction_l	hip_rotation_l	knee_angle_l	knee_angle_l_beta	ankle_angle_l	subtalar_angle_l	mtp_angle_l	lumbar_extension	lumbar_bending	lumbar_rotation	arm_flex_r	arm_add_r	arm_rot_r	elbow_flex_r	pro_sup_r	arm_flex_l	arm_add_l	arm_rot_l	elbow_flex_l	pro_sup_l
     45.45000000	     -2.49143086	     -5.09519056	     -8.55511429	      0.70655262	      0.92566521	      0.75359977	     13.55175159	      8.77465242	      2.48049676	     17.38140380	      0.30336272	     12.10927592	     -7.38626329	     -7.49999987	      9.66424212	     -8.42333603	     -6.09088504	     56.77230814	      0.99086370	      5.86244394	    -11.82531330	     -7.49999987	      0.77076929	      7.81729283	      5.36429452	      7.73311565	    -12.61010735	     13.71726065	     17.63703321	    101.34265862	      2.25611228	     -8.12607104	     17.20192379	     18.15052714	    104.23653925
     45.46666670	     -1.80291318	     -4.80984829	     -8.35657267	      0.70586532	      0.92824953	      0.75408124	     11.00560945	      8.38496404	      2.36758442	     15.92683701	      0.27797575	     12.47082284	     -6.89967336	     -7.49999987	     11.76126652	     -8.22363322	     -5.56429484	     59.51093805	      1.03866181	      4.60120845	    -12.99079131	     -7.49999987	     -0.23711225	      7.26815982	      6.42860166	      8.42696006	    -13.30045468	     15.07473863	     19.25213556	    100.00881659	      2.06778263	     -8.31844337	     18.94951655	     17.27164922	    104.72759118
     45.48333330	     -1.19285690	     -4.39192787	     -8.10326911	      0.70505712	      0.92878514	      0.75501002	      8.60016848	      7.82395806	      2.05311982	     14.43814380	      0.25199315	     12.65661261	     -6.35738387	     -7.49999987	     13.89421621	     -7.84052860	     -5.21373261	     61.51556761	      1.07364920	      4.33047081	    -13.69152368	     -7.49999987	     -1.18830094	      6.59765131	      7.30380818	      9.31463303	    -13.82138843	     16.04327284	     20.38106465	     98.50384776	      1.76528885	     -8.53453634	     20.51005118	     16.45331868	    104.55670737
     45.50000000	     -0.43619339	     -3.82858713	     -7.80706836	      0.70323933	      0.92801590	      0.75699233	      6.25992212	      7.09415595	      1.66456587	     13.11435694	      0.22888871	     12.75539515	     -6.04300543	     -7.49999987	     15.57339218	     -7.21548680	     -5.07584743	     62.28580117	      1.08709231	      5.02441314	    -13.93140513	     -7.49999987	     -2.45520913	      5.75120724	      7.81389369	     10.49147221	    -14.14869771	     16.17319895	     21.47545165	     96.34406996	      1.19228910	     -8.78918813	     20.94573908	     15.95128098	    102.56832695
     45.51666670	      0.19252499	     -3.21878781	     -7.51416991	      0.69971456	      0.92859550	      0.75966701	      4.32856520	      6.33245327	      1.03109812	     12.09258153	      0.21105536	     13.04987289	     -5.30401346	     -7.49999987	     17.00362303	     -6.53361699	     -5.08481988	     61.75726134	      1.07786755	      6.40509991	    -13.53877677	     -7.49999987	     -3.66200537	      4.85460026	      8.34166313	     11.63780924	    -14.69727998	     17.11212702	     22.81731888	     95.97787817	      0.84687743	     -9.14809665	     22.39808021	     15.23548633	    102.76998671
     45.53333330	      0.81695507	     -2.56623340	     -7.31357740	      0.69470302	      0.93009644	      0.76221659	      2.62446419	      5.58721570	      0.75308687	     11.36793144	      0.19840783	     13.11812686	     -5.20242769	     -7.49999987	     18.03654274	     -5.81027029	     -5.28181172	     60.00271372	      1.04724491	      7.59814161	    -13.14050281	     -7.49999987	     -4.97657792	      3.86233973	      8.65525030	     12.86549103	    -14.96533744	     17.23476680	     24.13795540	     95.55711397	      0.33144205	     -9.56359912	     22.70478518	     15.11862118	    103.14294799
